<mxfile host="app.diagrams.net" modified="2024-05-01T17:14:01.715Z" agent="Mozilla/5.0 (Windows NT 10.0; Win64; x64) AppleWebKit/537.36 (KHTML, like Gecko) Chrome/124.0.0.0 Safari/537.36 Edg/124.0.0.0" etag="UUYKxIJOCRrc9vDZGUiw" version="24.3.1" type="device">
  <diagram name="Page-1" id="7AT0lxllg-7E264JI0L5">
    <mxGraphModel dx="1737" dy="948" grid="1" gridSize="10" guides="1" tooltips="1" connect="1" arrows="1" fold="1" page="1" pageScale="1" pageWidth="850" pageHeight="1100" math="0" shadow="0">
      <root>
        <mxCell id="0" />
        <mxCell id="1" parent="0" />
        <mxCell id="eatDdgcfD4bzvZ1ehTvU-10" value="" style="rounded=0;whiteSpace=wrap;html=1;" vertex="1" parent="1">
          <mxGeometry x="67.16" y="600" width="267.84" height="190" as="geometry" />
        </mxCell>
        <mxCell id="eatDdgcfD4bzvZ1ehTvU-11" value="&lt;span style=&quot;font-size: 24px;&quot;&gt;ProfileController&lt;/span&gt;&lt;div&gt;&lt;span style=&quot;font-size: 24px;&quot;&gt;&lt;br&gt;&lt;/span&gt;&lt;div&gt;&lt;br&gt;&lt;/div&gt;&lt;div&gt;&lt;br&gt;&lt;/div&gt;&lt;/div&gt;" style="text;strokeColor=none;fillColor=none;align=left;verticalAlign=middle;spacingLeft=4;spacingRight=4;overflow=hidden;points=[[0,0.5],[1,0.5]];portConstraint=eastwest;rotatable=0;whiteSpace=wrap;html=1;" vertex="1" parent="1">
          <mxGeometry x="67.16" y="610" width="317.84" height="50" as="geometry" />
        </mxCell>
        <mxCell id="eatDdgcfD4bzvZ1ehTvU-12" value="" style="endArrow=none;html=1;rounded=0;exitX=-0.006;exitY=0.204;exitDx=0;exitDy=0;exitPerimeter=0;" edge="1" parent="1">
          <mxGeometry width="50" height="50" relative="1" as="geometry">
            <mxPoint x="63.559999999999974" y="660" as="sourcePoint" />
            <mxPoint x="335" y="662" as="targetPoint" />
          </mxGeometry>
        </mxCell>
        <mxCell id="eatDdgcfD4bzvZ1ehTvU-13" value="&lt;div style=&quot;border-color: var(--border-color); text-align: left;&quot;&gt;&lt;font style=&quot;border-color: var(--border-color); font-size: 16px;&quot;&gt;+changePass&lt;/font&gt;&lt;/div&gt;&lt;div style=&quot;border-color: var(--border-color); text-align: left;&quot;&gt;&lt;font size=&quot;3&quot; style=&quot;border-color: var(--border-color);&quot;&gt;+changeNick&lt;br style=&quot;border-color: var(--border-color);&quot;&gt;&lt;/font&gt;&lt;/div&gt;&lt;div style=&quot;border-color: var(--border-color); text-align: left;&quot;&gt;&lt;font style=&quot;border-color: var(--border-color);&quot; size=&quot;3&quot;&gt;+changeName&lt;br style=&quot;border-color: var(--border-color);&quot;&gt;&lt;/font&gt;&lt;/div&gt;&lt;div style=&quot;border-color: var(--border-color); text-align: left;&quot;&gt;&lt;font style=&quot;border-color: var(--border-color);&quot; size=&quot;3&quot;&gt;+changeEmail&lt;/font&gt;&lt;/div&gt;" style="text;html=1;align=center;verticalAlign=middle;whiteSpace=wrap;rounded=0;" vertex="1" parent="1">
          <mxGeometry x="49.99999999999997" y="630" width="150" height="160" as="geometry" />
        </mxCell>
        <mxCell id="eatDdgcfD4bzvZ1ehTvU-14" value="" style="rounded=0;whiteSpace=wrap;html=1;" vertex="1" parent="1">
          <mxGeometry x="320.34000000000003" y="330" width="232.84" height="160" as="geometry" />
        </mxCell>
        <mxCell id="eatDdgcfD4bzvZ1ehTvU-15" value="" style="endArrow=none;html=1;rounded=0;exitX=-0.006;exitY=0.204;exitDx=0;exitDy=0;exitPerimeter=0;" edge="1" parent="1">
          <mxGeometry width="50" height="50" relative="1" as="geometry">
            <mxPoint x="316.74" y="390" as="sourcePoint" />
            <mxPoint x="553.18" y="390" as="targetPoint" />
          </mxGeometry>
        </mxCell>
        <mxCell id="eatDdgcfD4bzvZ1ehTvU-16" value="&lt;div style=&quot;border-color: var(--border-color); text-align: left;&quot;&gt;&lt;span style=&quot;font-size: 16px;&quot;&gt;+menuEnter&lt;/span&gt;&lt;/div&gt;&lt;div style=&quot;border-color: var(--border-color); text-align: left;&quot;&gt;&lt;span style=&quot;font-size: 16px;&quot;&gt;+menuExit&lt;/span&gt;&lt;/div&gt;&lt;div style=&quot;border-color: var(--border-color); text-align: left;&quot;&gt;&lt;span style=&quot;font-size: 16px;&quot;&gt;+showCurrentMenu&lt;/span&gt;&lt;/div&gt;&lt;div style=&quot;border-color: var(--border-color); text-align: left;&quot;&gt;&lt;span style=&quot;font-size: 16px;&quot;&gt;&lt;br&gt;&lt;/span&gt;&lt;/div&gt;" style="text;html=1;align=center;verticalAlign=middle;whiteSpace=wrap;rounded=0;" vertex="1" parent="1">
          <mxGeometry x="320.34000000000003" y="360" width="150" height="160" as="geometry" />
        </mxCell>
        <mxCell id="eatDdgcfD4bzvZ1ehTvU-18" value="&lt;font style=&quot;font-size: 24px;&quot;&gt;MainController&lt;/font&gt;" style="text;strokeColor=none;fillColor=none;align=left;verticalAlign=middle;spacingLeft=4;spacingRight=4;overflow=hidden;points=[[0,0.5],[1,0.5]];portConstraint=eastwest;rotatable=0;whiteSpace=wrap;html=1;" vertex="1" parent="1">
          <mxGeometry x="320.34000000000003" y="330" width="140" height="70" as="geometry" />
        </mxCell>
        <mxCell id="eatDdgcfD4bzvZ1ehTvU-19" value="" style="rounded=0;whiteSpace=wrap;html=1;" vertex="1" parent="1">
          <mxGeometry x="462.5" y="580" width="367.84" height="260" as="geometry" />
        </mxCell>
        <mxCell id="eatDdgcfD4bzvZ1ehTvU-20" value="&lt;font style=&quot;font-size: 24px;&quot;&gt;LoginController&lt;/font&gt;&lt;div&gt;&lt;span style=&quot;font-size: 24px;&quot;&gt;&lt;br&gt;&lt;/span&gt;&lt;div&gt;&lt;font size=&quot;3&quot;&gt;+checkPass&lt;/font&gt;&lt;/div&gt;&lt;div&gt;&lt;font size=&quot;3&quot;&gt;+checkQuestion&lt;/font&gt;&lt;/div&gt;&lt;div&gt;&lt;font size=&quot;3&quot;&gt;+signUp&lt;/font&gt;&lt;/div&gt;&lt;div&gt;&lt;font size=&quot;3&quot;&gt;+login&lt;/font&gt;&lt;/div&gt;&lt;div&gt;&lt;font size=&quot;3&quot;&gt;+passwords&lt;/font&gt;&lt;/div&gt;&lt;div&gt;&lt;font size=&quot;3&quot;&gt;+forgetPasswordByUsername&lt;/font&gt;&lt;/div&gt;&lt;div&gt;&lt;font size=&quot;3&quot;&gt;+forgetPasswordByEmail&lt;/font&gt;&lt;/div&gt;&lt;div&gt;&lt;font size=&quot;3&quot;&gt;+logOut&lt;/font&gt;&lt;/div&gt;&lt;/div&gt;&lt;div&gt;&lt;font size=&quot;3&quot;&gt;+menuExit&lt;br&gt;&lt;/font&gt;&lt;/div&gt;" style="text;strokeColor=none;fillColor=none;align=left;verticalAlign=middle;spacingLeft=4;spacingRight=4;overflow=hidden;points=[[0,0.5],[1,0.5]];portConstraint=eastwest;rotatable=0;whiteSpace=wrap;html=1;" vertex="1" parent="1">
          <mxGeometry x="467.5" y="590" width="360" height="240" as="geometry" />
        </mxCell>
        <mxCell id="eatDdgcfD4bzvZ1ehTvU-21" value="" style="endArrow=none;html=1;rounded=0;exitX=-0.006;exitY=0.204;exitDx=0;exitDy=0;exitPerimeter=0;entryX=1.014;entryY=0.211;entryDx=0;entryDy=0;entryPerimeter=0;" edge="1" parent="1" source="eatDdgcfD4bzvZ1ehTvU-20" target="eatDdgcfD4bzvZ1ehTvU-20">
          <mxGeometry width="50" height="50" relative="1" as="geometry">
            <mxPoint x="922.5" y="720.0045454545455" as="sourcePoint" />
            <mxPoint x="1072.5" y="774.55" as="targetPoint" />
          </mxGeometry>
        </mxCell>
        <mxCell id="eatDdgcfD4bzvZ1ehTvU-22" value="" style="endArrow=none;html=1;rounded=0;entryX=0.5;entryY=1;entryDx=0;entryDy=0;exitX=0.5;exitY=0;exitDx=0;exitDy=0;" edge="1" parent="1" source="eatDdgcfD4bzvZ1ehTvU-19" target="eatDdgcfD4bzvZ1ehTvU-14">
          <mxGeometry width="50" height="50" relative="1" as="geometry">
            <mxPoint x="619.96" y="630" as="sourcePoint" />
            <mxPoint x="669.96" y="580" as="targetPoint" />
          </mxGeometry>
        </mxCell>
        <mxCell id="eatDdgcfD4bzvZ1ehTvU-23" value="" style="endArrow=none;html=1;rounded=0;exitX=0.5;exitY=0;exitDx=0;exitDy=0;entryX=0.5;entryY=1;entryDx=0;entryDy=0;" edge="1" parent="1" source="eatDdgcfD4bzvZ1ehTvU-10" target="eatDdgcfD4bzvZ1ehTvU-14">
          <mxGeometry width="50" height="50" relative="1" as="geometry">
            <mxPoint x="400" y="890" as="sourcePoint" />
            <mxPoint x="450" y="840" as="targetPoint" />
          </mxGeometry>
        </mxCell>
        <mxCell id="eatDdgcfD4bzvZ1ehTvU-24" value="" style="rounded=0;whiteSpace=wrap;html=1;" vertex="1" parent="1">
          <mxGeometry x="513.6" y="940" width="267.84" height="210" as="geometry" />
        </mxCell>
        <mxCell id="eatDdgcfD4bzvZ1ehTvU-25" value="" style="endArrow=none;html=1;rounded=0;exitX=-0.006;exitY=0.204;exitDx=0;exitDy=0;exitPerimeter=0;" edge="1" parent="1">
          <mxGeometry width="50" height="50" relative="1" as="geometry">
            <mxPoint x="510" y="1000" as="sourcePoint" />
            <mxPoint x="781.4399999999999" y="1002" as="targetPoint" />
          </mxGeometry>
        </mxCell>
        <mxCell id="eatDdgcfD4bzvZ1ehTvU-26" value="&lt;div style=&quot;border-color: var(--border-color); text-align: left;&quot;&gt;&lt;span style=&quot;font-size: 16px;&quot;&gt;+showCards&lt;/span&gt;&lt;/div&gt;&lt;div style=&quot;border-color: var(--border-color); text-align: left;&quot;&gt;&lt;span style=&quot;font-size: 16px;&quot;&gt;+showRemainCards&lt;/span&gt;&lt;/div&gt;&lt;div style=&quot;border-color: var(--border-color); text-align: left;&quot;&gt;&lt;span style=&quot;font-size: 16px;&quot;&gt;+returnCardsToDeckCards&lt;/span&gt;&lt;/div&gt;&lt;div style=&quot;border-color: var(--border-color); text-align: left;&quot;&gt;&lt;span style=&quot;font-size: 16px;&quot;&gt;+addToDeck&lt;/span&gt;&lt;/div&gt;&lt;div style=&quot;border-color: var(--border-color); text-align: left;&quot;&gt;&lt;span style=&quot;font-size: 16px;&quot;&gt;+deleteFromDeck&lt;/span&gt;&lt;/div&gt;&lt;div style=&quot;border-color: var(--border-color); text-align: left;&quot;&gt;&lt;span style=&quot;font-size: 16px;&quot;&gt;+setLeader&lt;/span&gt;&lt;/div&gt;&lt;div style=&quot;border-color: var(--border-color); text-align: left;&quot;&gt;&lt;span style=&quot;font-size: 16px;&quot;&gt;+showDeck&lt;/span&gt;&lt;/div&gt;" style="text;html=1;align=center;verticalAlign=middle;whiteSpace=wrap;rounded=0;" vertex="1" parent="1">
          <mxGeometry x="536.4399999999999" y="990" width="150" height="160" as="geometry" />
        </mxCell>
        <mxCell id="eatDdgcfD4bzvZ1ehTvU-27" value="&lt;font style=&quot;font-size: 24px;&quot;&gt;PreGameController&lt;/font&gt;" style="text;strokeColor=none;fillColor=none;align=left;verticalAlign=middle;spacingLeft=4;spacingRight=4;overflow=hidden;points=[[0,0.5],[1,0.5]];portConstraint=eastwest;rotatable=0;whiteSpace=wrap;html=1;" vertex="1" parent="1">
          <mxGeometry x="526.4399999999999" y="950" width="230" height="30" as="geometry" />
        </mxCell>
        <mxCell id="eatDdgcfD4bzvZ1ehTvU-28" value="" style="rounded=0;whiteSpace=wrap;html=1;" vertex="1" parent="1">
          <mxGeometry x="509.32000000000005" y="1270" width="267.84" height="410" as="geometry" />
        </mxCell>
        <mxCell id="eatDdgcfD4bzvZ1ehTvU-29" value="" style="endArrow=none;html=1;rounded=0;exitX=-0.006;exitY=0.204;exitDx=0;exitDy=0;exitPerimeter=0;" edge="1" parent="1">
          <mxGeometry width="50" height="50" relative="1" as="geometry">
            <mxPoint x="505.72" y="1330" as="sourcePoint" />
            <mxPoint x="777.1600000000001" y="1332" as="targetPoint" />
          </mxGeometry>
        </mxCell>
        <mxCell id="eatDdgcfD4bzvZ1ehTvU-30" value="&lt;div style=&quot;border-color: var(--border-color); text-align: left;&quot;&gt;&lt;span style=&quot;font-size: 16px;&quot;&gt;+startGame&lt;/span&gt;&lt;/div&gt;&lt;div style=&quot;border-color: var(--border-color); text-align: left;&quot;&gt;&lt;span style=&quot;font-size: 16px;&quot;&gt;+changeTurn&lt;/span&gt;&lt;/div&gt;&lt;div style=&quot;border-color: var(--border-color); text-align: left;&quot;&gt;&lt;span style=&quot;font-size: 16px;&quot;&gt;+showTurn&lt;/span&gt;&lt;/div&gt;&lt;div style=&quot;border-color: var(--border-color); text-align: left;&quot;&gt;&lt;span style=&quot;font-size: 16px;&quot;&gt;+showEachPlayerScore&lt;/span&gt;&lt;/div&gt;&lt;div style=&quot;border-color: var(--border-color); text-align: left;&quot;&gt;&lt;span style=&quot;font-size: 16px;&quot;&gt;+showEachPlayerPower&lt;/span&gt;&lt;/div&gt;&lt;div style=&quot;border-color: var(--border-color); text-align: left;&quot;&gt;&lt;span style=&quot;font-size: 16px;&quot;&gt;+vetoCard&lt;br&gt;+showHandDeck&lt;/span&gt;&lt;/div&gt;&lt;div style=&quot;border-color: var(--border-color); text-align: left;&quot;&gt;&lt;span style=&quot;font-size: 16px;&quot;&gt;+showSpells&lt;/span&gt;&lt;/div&gt;&lt;div style=&quot;border-color: var(--border-color); text-align: left;&quot;&gt;&lt;span style=&quot;font-size: 16px;&quot;&gt;+showCardsRow&lt;/span&gt;&lt;/div&gt;&lt;div style=&quot;border-color: var(--border-color); text-align: left;&quot;&gt;&lt;span style=&quot;font-size: 16px;&quot;&gt;+placeCard&lt;/span&gt;&lt;/div&gt;&lt;div style=&quot;border-color: var(--border-color); text-align: left;&quot;&gt;&lt;span style=&quot;font-size: 16px;&quot;&gt;+showLeader&lt;/span&gt;&lt;/div&gt;&lt;div style=&quot;border-color: var(--border-color); text-align: left;&quot;&gt;&lt;span style=&quot;font-size: 16px;&quot;&gt;+playLeader&lt;/span&gt;&lt;/div&gt;&lt;div style=&quot;border-color: var(--border-color); text-align: left;&quot;&gt;&lt;span style=&quot;font-size: 16px;&quot;&gt;+showPlayerInfo&lt;/span&gt;&lt;/div&gt;&lt;div style=&quot;border-color: var(--border-color); text-align: left;&quot;&gt;&lt;span style=&quot;font-size: 16px;&quot;&gt;+showScore&lt;/span&gt;&lt;/div&gt;&lt;div style=&quot;border-color: var(--border-color); text-align: left;&quot;&gt;&lt;span style=&quot;font-size: 16px;&quot;&gt;+showRowScore&lt;/span&gt;&lt;/div&gt;&lt;div style=&quot;border-color: var(--border-color); text-align: left;&quot;&gt;&lt;span style=&quot;font-size: 16px;&quot;&gt;+passRun&lt;/span&gt;&lt;/div&gt;&lt;div style=&quot;border-color: var(--border-color); text-align: left;&quot;&gt;&lt;span style=&quot;font-size: 16px;&quot;&gt;+endGame&lt;/span&gt;&lt;/div&gt;" style="text;html=1;align=center;verticalAlign=middle;whiteSpace=wrap;rounded=0;" vertex="1" parent="1">
          <mxGeometry x="532.16" y="1420" width="150" height="160" as="geometry" />
        </mxCell>
        <mxCell id="eatDdgcfD4bzvZ1ehTvU-31" value="&lt;font style=&quot;font-size: 24px;&quot;&gt;GameController&lt;/font&gt;" style="text;strokeColor=none;fillColor=none;align=left;verticalAlign=middle;spacingLeft=4;spacingRight=4;overflow=hidden;points=[[0,0.5],[1,0.5]];portConstraint=eastwest;rotatable=0;whiteSpace=wrap;html=1;" vertex="1" parent="1">
          <mxGeometry x="512.16" y="1290" width="200" height="30" as="geometry" />
        </mxCell>
        <mxCell id="eatDdgcfD4bzvZ1ehTvU-32" value="" style="endArrow=none;html=1;rounded=0;exitX=0.5;exitY=1;exitDx=0;exitDy=0;entryX=0.5;entryY=0;entryDx=0;entryDy=0;" edge="1" parent="1" source="eatDdgcfD4bzvZ1ehTvU-19" target="eatDdgcfD4bzvZ1ehTvU-24">
          <mxGeometry width="50" height="50" relative="1" as="geometry">
            <mxPoint x="570" y="1160" as="sourcePoint" />
            <mxPoint x="620" y="1110" as="targetPoint" />
          </mxGeometry>
        </mxCell>
        <mxCell id="eatDdgcfD4bzvZ1ehTvU-33" value="" style="endArrow=none;html=1;rounded=0;exitX=0.5;exitY=1;exitDx=0;exitDy=0;entryX=0.5;entryY=0;entryDx=0;entryDy=0;" edge="1" parent="1" source="eatDdgcfD4bzvZ1ehTvU-24" target="eatDdgcfD4bzvZ1ehTvU-28">
          <mxGeometry width="50" height="50" relative="1" as="geometry">
            <mxPoint x="570" y="1380" as="sourcePoint" />
            <mxPoint x="620" y="1330" as="targetPoint" />
          </mxGeometry>
        </mxCell>
      </root>
    </mxGraphModel>
  </diagram>
</mxfile>
